<svg xmlns="http://www.w3.org/2000/svg" style="background: none;" preserveAspectRatio="xMidYMid" viewBox="107.13 57.77 287.02 36.55"><defs><filter id="editing-extrusion" x="-100%" y="-100%" width="300%" height="300%"><feFlood result="color1" flood-color="rgba(0%,0%,0%,0.878)"/><feConvolveMatrix order="6,6" divisor="1" kernelMatrix="1 0 0 0 0 0 0 1 0 0 0 0 0 0 1 0 0 0 0 0 0 1 0 0 0 0 0 0 1 0 0 0 0 0 0 1" in="SourceAlpha" result="extrude"/><feComposite in="color1" in2="extrude" result="comp-extrude" operator="in"/><feOffset dx="3" dy="3" in="comp-extrude" result="offset-extrude"/><feMerge><feMergeNode in="offset-extrude"/><feMergeNode in="SourceGraphic"/></feMerge></filter></defs><g filter="url(#editing-extrusion)"><g transform="translate(107.03735961765051, 93.25)"><path d="M21.16-24.02L21.16-24.02L21.16-24.02Q21.94-25.58 21.94-27.04L21.94-27.04L21.94-27.04Q21.94-28.50 21.79-29.30L21.79-29.30L21.79-29.30Q21.63-30.11 21.27-30.73L21.27-30.73L21.27-30.73Q20.49-32.08 18.93-32.08L18.93-32.08L18.93-32.08Q17.00-32.08 15.44-30.68L15.44-30.68L15.44-30.68Q13.78-29.22 13.78-26.94L13.78-26.94L13.78-26.94Q13.78-25.48 14.79-24.36L14.79-24.36L14.79-24.36Q15.81-23.24 17.37-22.20L17.37-22.20L17.37-22.20Q18.93-21.16 20.70-20.12L20.70-20.12L20.70-20.12Q22.46-19.08 24.02-17.84L24.02-17.84L24.02-17.84Q27.61-14.98 27.61-11.13L27.61-11.13L27.61-11.13Q27.61-8.53 26.23-6.32L26.23-6.32L26.23-6.32Q24.86-4.11 22.57-2.50L22.57-2.50L22.57-2.50Q17.58 1.04 10.97 1.04L10.97 1.04L10.97 1.04Q5.62 1.04 2.86-0.70L2.86-0.70L2.86-0.70Q0.10-2.44 0.10-5.10L0.10-5.10L0.10-5.10Q0.10-9.83 3.80-11.02L3.80-11.02L3.80-11.02Q4.84-11.39 6.42-11.39L6.42-11.39L6.42-11.39Q8.01-11.39 9.83-10.71L9.83-10.71L9.83-10.71Q9.00-8.58 9.00-6.66L9.00-6.66L9.00-6.66Q9.00-2.50 11.96-2.50L11.96-2.50L11.96-2.50Q13.88-2.50 15.47-3.90L15.47-3.90L15.47-3.90Q17.06-5.30 17.06-6.89L17.06-6.89L17.06-6.89Q17.06-8.48 16.04-9.62L16.04-9.62L16.04-9.62Q15.03-10.76 13.52-11.67L13.52-11.67L13.52-11.67Q12.01-12.58 10.27-13.47L10.27-13.47L10.27-13.47Q8.53-14.35 7.02-15.60L7.02-15.60L7.02-15.60Q3.48-18.46 3.48-23.04L3.48-23.04L3.48-23.04Q3.48-26.00 4.94-28.31L4.94-28.31L4.94-28.31Q6.40-30.63 8.74-32.19L8.74-32.19L8.74-32.19Q13.42-35.36 19.16-35.36L19.16-35.36L19.16-35.36Q24.91-35.36 27.69-33.64L27.69-33.64L27.69-33.64Q30.47-31.93 30.47-29.02L30.47-29.02L30.47-29.02Q30.47-26.47 28.50-24.86L28.50-24.86L28.50-24.86Q26.78-23.50 24.70-23.50L24.70-23.50L24.70-23.50Q22.62-23.50 21.16-24.02ZM50.96-3.90L50.96-3.90L50.96-3.90Q50.96-7.54 52.42-14.82L52.42-14.82L44.72-14.82L41.86 0L30.99 0L37.60-34.32L48.57-34.32L45.55-18.98L53.25-18.98L56.11-34.32L67.08-34.32L67.08-34.32Q66.35-30.47 65.42-26.16L65.42-26.16L63.65-17.68L63.65-17.68Q61.67-7.80 61.67-3.48L61.67-3.48L61.67-3.48Q61.67-1.72 62.24-0.73L62.24-0.73L62.24-0.73Q59.64 1.04 56.60 1.04L56.60 1.04L56.60 1.04Q53.56 1.04 52.26-0.42L52.26-0.42L52.26-0.42Q50.96-1.87 50.96-3.90ZM69.11-12.69L69.11-12.69L69.11-12.69Q69.11-22.52 74.20-28.70L74.20-28.70L74.20-28.70Q79.61-35.41 89.02-35.41L89.02-35.41L89.02-35.41Q95.84-35.41 99.27-32.11L99.27-32.11L99.27-32.11Q102.70-28.81 102.70-21.84L102.70-21.84L102.70-21.84Q102.70-11.23 97.29-5.04L97.29-5.04L97.29-5.04Q91.94 1.04 82.94 1.04L82.94 1.04L82.94 1.04Q75.92 1.04 72.51-2.47L72.51-2.47L72.51-2.47Q69.11-5.98 69.11-12.69ZM82.78-23.45L82.78-23.45L82.78-23.45Q80.44-14.09 80.44-6.71L80.44-6.71L80.44-6.71Q80.44-4.94 81.04-3.80L81.04-3.80L81.04-3.80Q81.64-2.65 83.23-2.65L83.23-2.65L83.23-2.65Q84.81-2.65 85.80-3.41L85.80-3.41L85.80-3.41Q86.79-4.16 87.57-5.88L87.57-5.88L87.57-5.88Q88.82-8.68 89.99-14.64L89.99-14.64L89.99-14.64Q91.16-20.59 91.26-23.06L91.26-23.06L91.26-23.06Q91.36-25.53 91.36-27.40L91.36-27.40L91.36-27.40Q91.36-29.28 90.79-30.47L90.79-30.47L90.79-30.47Q90.22-31.67 88.69-31.67L88.69-31.67L88.69-31.67Q87.15-31.67 86.11-30.73L86.11-30.73L86.11-30.73Q84.19-28.96 82.78-23.45ZM106.55-32.24L106.55-32.24L106.55-32.24Q107.28-33.70 108.86-34.50L108.86-34.50L108.86-34.50Q110.45-35.31 112.63-35.31L112.63-35.31L112.63-35.31Q116.06-35.31 118.12-32.84L118.12-32.84L118.12-32.84Q120.17-30.37 120.17-24.96L120.17-24.96L120.17-6.40L132.08-34.27L138.22-34.27L139.62-7.96L139.46-6.45L151.84-34.27L158.96-34.27L142.32 0L131.25 0L130.21-15.81L123.34 0L110.81 0L109.25-24.96L109.25-24.96Q109.10-27.77 108.34-29.61L108.34-29.61L108.34-29.61Q107.59-31.46 106.55-32.24ZM171.60-25.32L171.60-25.32L171.60-25.32Q169.83-26.68 169.83-29.56L169.83-29.56L169.83-29.56Q169.83-32.45 171.73-33.96L171.73-33.96L171.73-33.96Q173.63-35.46 176.90-35.46L176.90-35.46L176.90-35.46Q178.98-35.46 183.92-34.74L183.92-34.74L187.46-34.22L187.46-34.22Q189.23-34.01 191.07-34.01L191.07-34.01L191.07-34.01Q192.92-34.01 194.17-34.79L194.17-34.79L194.17-34.79Q196.04-33.12 196.04-30.73L196.04-30.73L196.04-30.73Q196.04-28.34 193.91-26.62L193.91-26.62L193.91-26.62Q191.72-24.80 188.92-24.80L188.92-24.80L188.92-24.80Q187.56-24.80 185.38-25.17L185.38-25.17L185.38-25.17Q182.83-17.16 182.83-11.60L182.83-11.60L182.83-11.60Q182.83-6.03 185.64-3.12L185.64-3.12L185.64-3.12Q184.34-0.78 182.42 0.13L182.42 0.13L182.42 0.13Q180.49 1.04 177.61 1.04L177.61 1.04L177.61 1.04Q174.72 1.04 172.93-0.55L172.93-0.55L172.93-0.55Q171.13-2.13 171.13-5.41L171.13-5.41L171.13-5.41Q171.13-9.20 173.21-15.44L173.21-15.44L173.21-15.44Q175.29-21.63 178.41-26.36L178.41-26.36L178.41-26.36Q176.90-26.52 175.34-26.52L175.34-26.52L175.34-26.52Q172.12-26.52 171.60-25.32ZM205.14 0L193.80 0L200.41-34.32L211.85-34.32L205.14 0ZM217.41 0L211.43 0L220.84-34.32L231.71-34.32L234.10-14.72L243.78-34.32L252.88-34.32L253.81-8.63L253.81-8.63Q254.02-3.54 256.52-1.98L256.52-1.98L256.52-1.98Q255.94-0.94 254.28 0.05L254.28 0.05L254.28 0.05Q252.62 1.04 250.41 1.04L250.41 1.04L250.41 1.04Q248.20 1.04 246.90 0.42L246.90 0.42L246.90 0.42Q245.60-0.21 244.87-1.25L244.87-1.25L244.87-1.25Q243.57-3.12 243.57-6.71L243.57-6.71L243.57-22.78L233.32 0L226.88 0L223.24-23.35L217.41 0ZM280.96-8.01L280.96-8.01L280.96-8.01Q281.94-6.76 281.94-4.73L281.94-4.73L281.94-4.73Q281.94-1.92 279.86-0.44L279.86-0.44L279.86-0.44Q277.78 1.04 274.51 1.04L274.51 1.04L274.51 1.04Q272.64 1.04 269.78 0.62L269.78 0.62L269.78 0.62Q264.16-0.26 262.44-0.26L262.44-0.26L262.44-0.26Q260.73-0.26 260.05-0.18L260.05-0.18L260.05-0.18Q259.38-0.10 258.28 0L258.28 0L264.68-34.32L287.09-34.32L287.09-34.32Q287.09-31.15 285.56-29.48L285.56-29.48L285.56-29.48Q284.02-27.82 281.01-27.82L281.01-27.82L281.01-27.82Q277.99-27.82 274.92-29.22L274.92-29.22L273.31-20.12L282.57-20.12L282.57-20.12Q282.57-17.37 281.22-15.83L281.22-15.83L281.22-15.83Q279.86-14.30 277.60-14.30L277.60-14.30L277.60-14.30Q275.34-14.30 273.94-14.82L273.94-14.82L273.94-14.82Q272.53-15.34 272.38-15.50L272.38-15.50L270.50-5.67L270.50-5.67Q271.75-5.51 274.09-5.51L274.09-5.51L274.09-5.51Q278.10-5.51 280.96-8.01Z" fill="rgba(99.2156862745098%,93.33333333333333%,1.9607843137254888%,0.928)"/></g></g><style>text {
  font-size: 64px;
  font-family: Arial Black;
  dominant-baseline: central;
  text-anchor: middle;
}</style></svg>